<svg xmlns="http://www.w3.org/2000/svg" version="1.1" xmlns:xlink="http://www.w3.org/1999/xlink" xmlns:svgjs="http://svgjs.dev/svgjs" width="1440" height="560" preserveAspectRatio="none" viewBox="0 0 1440 560"><g mask="url(&quot;#SvgjsMask1002&quot;)" fill="none"><path d="M -512.8053758724415,144 C -416.81,203.4 -224.81,432.6 -32.80537587244151,441 C 159.19,449.4 255.19,179.4 447.1946241275585,186 C 639.19,192.6 735.19,465 927.1946241275585,474 C 1119.19,483 1304.63,232.6 1407.1946241275584,231 C 1509.76,229.4 1433.44,419 1440,466" stroke="rgba(129, 143, 158, 0.58)" stroke-width="2"></path><path d="M -512.5139358360581,356 C -416.51,299 -224.51,44.4 -32.51393583605811,71 C 159.49,97.6 255.49,449.8 447.4860641639419,489 C 639.49,528.2 735.49,294.4 927.4860641639419,267 C 1119.49,239.6 1304.98,377.8 1407.4860641639418,352 C 1509.99,326.2 1433.5,180.8 1440,138" stroke="rgba(129, 143, 158, 0.58)" stroke-width="2"></path><path d="M -864.1991894035273,386 C -768.2,361.4 -576.2,276.8 -384.1991894035272,263 C -192.2,249.2 -96.2,351.4 95.80081059647279,317 C 287.8,282.6 383.8,76.8 575.8008105964727,91 C 767.8,105.2 882.96,388.6 1055.8008105964727,388 C 1228.64,387.4 1363.16,148 1440,88" stroke="rgba(129, 143, 158, 0.58)" stroke-width="2"></path><path d="M -691.1002354686818,226 C -595.1,273.2 -403.1,470.8 -211.10023546868183,462 C -19.1,453.2 76.9,188 268.89976453131817,182 C 460.9,176 556.9,456.2 748.8997645313182,432 C 940.9,407.8 1090.68,78.4 1228.8997645313182,61 C 1367.12,43.6 1397.78,288.2 1440,345" stroke="rgba(129, 143, 158, 0.58)" stroke-width="2"></path></g><defs><mask id="SvgjsMask1002"><rect width="1440" height="560" fill="#ffffff"></rect></mask></defs></svg>